<?xml version="1.0" encoding="utf-8" standalone="no"?>
<!DOCTYPE svg PUBLIC "-//W3C//DTD SVG 1.1//EN"
  "http://www.w3.org/Graphics/SVG/1.1/DTD/svg11.dtd">
<svg xmlns:xlink="http://www.w3.org/1999/xlink" width="237.9pt" height="208.5275pt" viewBox="0 0 237.9 208.5275" xmlns="http://www.w3.org/2000/svg" version="1.1">
 <metadata>
  <rdf:RDF xmlns:dc="http://purl.org/dc/elements/1.1/" xmlns:cc="http://creativecommons.org/ns#" xmlns:rdf="http://www.w3.org/1999/02/22-rdf-syntax-ns#">
   <cc:Work>
    <dc:type rdf:resource="http://purl.org/dc/dcmitype/StillImage"/>
    <dc:date>2026-02-10T15:24:15.027044</dc:date>
    <dc:format>image/svg+xml</dc:format>
    <dc:creator>
     <cc:Agent>
      <dc:title>Matplotlib v3.10.6, https://matplotlib.org/</dc:title>
     </cc:Agent>
    </dc:creator>
   </cc:Work>
  </rdf:RDF>
 </metadata>
 <defs>
  <style type="text/css">*{stroke-linejoin: round; stroke-linecap: butt}</style>
 </defs>
 <g id="figure_1">
  <g id="patch_1">
   <path d="M 0 208.5275 
L 237.9 208.5275 
L 237.9 0 
L 0 0 
L 0 208.5275 
z
" style="fill: none"/>
  </g>
  <g id="axes_1">
   <g id="patch_2">
    <path d="M 35.4 145.8 
L 230.7 145.8 
L 230.7 7.2 
L 35.4 7.2 
L 35.4 145.8 
z
" style="fill: none"/>
   </g>
   <g id="matplotlib.axis_1">
    <g id="xtick_1">
     <g id="line2d_1">
      <defs>
       <path id="m115970648d" d="M 0 0 
L 0 3.5 
" style="stroke: #000000; stroke-width: 0.8"/>
      </defs>
      <g>
       <use xlink:href="#m115970648d" x="35.4" y="145.8" style="stroke: #000000; stroke-width: 0.8"/>
      </g>
     </g>
     <g id="text_1">
      <!-- [0.00, 0.04] -->
      <g transform="translate(37.26375 190.1275) rotate(-90) scale(0.08 -0.08)">
       <defs>
        <path id="STIXGeneral-Regular-5b" d="M 1914 -998 
L 563 -998 
L 563 4237 
L 1914 4237 
L 1914 4077 
L 1382 4077 
Q 1216 4077 1133 4006 
Q 1050 3936 1050 3770 
L 1050 -493 
Q 1050 -838 1382 -838 
L 1914 -838 
L 1914 -998 
z
" transform="scale(0.015625)"/>
        <path id="STIXGeneral-Regular-30" d="M 3046 2112 
Q 3046 1683 2963 1302 
Q 2880 922 2717 602 
Q 2554 282 2266 96 
Q 1978 -90 1600 -90 
Q 1210 -90 915 108 
Q 621 307 461 640 
Q 301 973 227 1350 
Q 154 1728 154 2150 
Q 154 2746 301 3222 
Q 448 3699 790 4012 
Q 1133 4326 1626 4326 
Q 2253 4326 2649 3712 
Q 3046 3098 3046 2112 
z
M 2432 2080 
Q 2432 3091 2217 3625 
Q 2003 4160 1587 4160 
Q 1190 4160 979 3622 
Q 768 3085 768 2106 
Q 768 1120 979 598 
Q 1190 77 1600 77 
Q 2003 77 2217 598 
Q 2432 1120 2432 2080 
z
" transform="scale(0.015625)"/>
        <path id="STIXGeneral-Regular-2e" d="M 1158 275 
Q 1158 134 1052 32 
Q 947 -70 800 -70 
Q 653 -70 550 32 
Q 448 134 448 281 
Q 448 429 553 534 
Q 659 640 806 640 
Q 947 640 1052 531 
Q 1158 422 1158 275 
z
" transform="scale(0.015625)"/>
        <path id="STIXGeneral-Regular-2c" d="M 531 -902 
L 467 -781 
Q 998 -422 998 -96 
Q 998 -13 909 -13 
Q 883 -13 822 -25 
Q 762 -38 723 -38 
Q 352 -38 352 288 
Q 352 454 457 553 
Q 563 653 736 653 
Q 954 653 1101 496 
Q 1248 339 1248 96 
Q 1248 -198 1053 -473 
Q 858 -749 531 -902 
z
" transform="scale(0.015625)"/>
        <path id="STIXGeneral-Regular-20" transform="scale(0.015625)"/>
        <path id="STIXGeneral-Regular-34" d="M 3027 1069 
L 2368 1069 
L 2368 0 
L 1869 0 
L 1869 1069 
L 77 1069 
L 77 1478 
L 2086 4326 
L 2368 4326 
L 2368 1478 
L 3027 1478 
L 3027 1069 
z
M 1869 1478 
L 1869 3674 
L 333 1478 
L 1869 1478 
z
" transform="scale(0.015625)"/>
        <path id="STIXGeneral-Regular-5d" d="M 1568 -998 
L 218 -998 
L 218 -838 
L 781 -838 
Q 947 -838 1014 -768 
Q 1082 -698 1082 -544 
L 1082 3731 
Q 1082 4077 755 4077 
L 218 4077 
L 218 4237 
L 1568 4237 
L 1568 -998 
z
" transform="scale(0.015625)"/>
       </defs>
       <use xlink:href="#STIXGeneral-Regular-5b"/>
       <use xlink:href="#STIXGeneral-Regular-30" transform="translate(33.299988 0)"/>
       <use xlink:href="#STIXGeneral-Regular-2e" transform="translate(83.299973 0)"/>
       <use xlink:href="#STIXGeneral-Regular-30" transform="translate(108.299957 0)"/>
       <use xlink:href="#STIXGeneral-Regular-30" transform="translate(158.299942 0)"/>
       <use xlink:href="#STIXGeneral-Regular-2c" transform="translate(208.299927 0)"/>
       <use xlink:href="#STIXGeneral-Regular-20" transform="translate(233.299911 0)"/>
       <use xlink:href="#STIXGeneral-Regular-30" transform="translate(258.299896 0)"/>
       <use xlink:href="#STIXGeneral-Regular-2e" transform="translate(308.299881 0)"/>
       <use xlink:href="#STIXGeneral-Regular-30" transform="translate(333.299866 0)"/>
       <use xlink:href="#STIXGeneral-Regular-34" transform="translate(383.29985 0)"/>
       <use xlink:href="#STIXGeneral-Regular-5d" transform="translate(433.299835 0)"/>
      </g>
     </g>
    </g>
    <g id="xtick_2">
     <g id="line2d_2">
      <g>
       <use xlink:href="#m115970648d" x="43.243373" y="145.8" style="stroke: #000000; stroke-width: 0.8"/>
      </g>
     </g>
     <g id="text_2">
      <!-- [0.04, 0.08] -->
      <g transform="translate(45.107123 190.1275) rotate(-90) scale(0.08 -0.08)">
       <defs>
        <path id="STIXGeneral-Regular-38" d="M 2848 992 
Q 2848 499 2505 204 
Q 2163 -90 1587 -90 
Q 1050 -90 704 204 
Q 358 499 358 954 
Q 358 1293 524 1533 
Q 691 1773 1190 2125 
Q 710 2522 553 2765 
Q 397 3008 397 3328 
Q 397 3782 745 4054 
Q 1094 4326 1638 4326 
Q 2106 4326 2410 4060 
Q 2714 3795 2714 3411 
Q 2714 3059 2531 2848 
Q 2349 2637 1856 2374 
Q 2432 1990 2640 1689 
Q 2848 1389 2848 992 
z
M 2272 3411 
Q 2272 3744 2086 3945 
Q 1901 4147 1574 4147 
Q 1248 4147 1059 3977 
Q 870 3808 870 3513 
Q 870 3219 1059 2979 
Q 1248 2739 1670 2490 
Q 1997 2682 2134 2896 
Q 2272 3110 2272 3411 
z
M 1734 1741 
L 1357 1997 
Q 1075 1766 960 1545 
Q 845 1325 845 1011 
Q 845 576 1065 333 
Q 1286 90 1658 90 
Q 1971 90 2166 285 
Q 2362 480 2362 794 
Q 2362 1082 2214 1299 
Q 2067 1517 1734 1741 
z
" transform="scale(0.015625)"/>
       </defs>
       <use xlink:href="#STIXGeneral-Regular-5b"/>
       <use xlink:href="#STIXGeneral-Regular-30" transform="translate(33.299988 0)"/>
       <use xlink:href="#STIXGeneral-Regular-2e" transform="translate(83.299973 0)"/>
       <use xlink:href="#STIXGeneral-Regular-30" transform="translate(108.299957 0)"/>
       <use xlink:href="#STIXGeneral-Regular-34" transform="translate(158.299942 0)"/>
       <use xlink:href="#STIXGeneral-Regular-2c" transform="translate(208.299927 0)"/>
       <use xlink:href="#STIXGeneral-Regular-20" transform="translate(233.299911 0)"/>
       <use xlink:href="#STIXGeneral-Regular-30" transform="translate(258.299896 0)"/>
       <use xlink:href="#STIXGeneral-Regular-2e" transform="translate(308.299881 0)"/>
       <use xlink:href="#STIXGeneral-Regular-30" transform="translate(333.299866 0)"/>
       <use xlink:href="#STIXGeneral-Regular-38" transform="translate(383.29985 0)"/>
       <use xlink:href="#STIXGeneral-Regular-5d" transform="translate(433.299835 0)"/>
      </g>
     </g>
    </g>
    <g id="xtick_3">
     <g id="line2d_3">
      <g>
       <use xlink:href="#m115970648d" x="51.086747" y="145.8" style="stroke: #000000; stroke-width: 0.8"/>
      </g>
     </g>
     <g id="text_3">
      <!-- [0.08, 0.12] -->
      <g transform="translate(52.950497 190.1275) rotate(-90) scale(0.08 -0.08)">
       <defs>
        <path id="STIXGeneral-Regular-31" d="M 2522 0 
L 755 0 
L 755 96 
Q 1107 115 1235 227 
Q 1363 339 1363 608 
L 1363 3482 
Q 1363 3795 1171 3795 
Q 1082 3795 883 3718 
L 710 3654 
L 710 3744 
L 1856 4326 
L 1914 4307 
L 1914 486 
Q 1914 275 2042 185 
Q 2170 96 2522 96 
L 2522 0 
z
" transform="scale(0.015625)"/>
        <path id="STIXGeneral-Regular-32" d="M 3034 877 
L 2688 0 
L 186 0 
L 186 77 
L 1325 1286 
Q 1773 1754 1965 2144 
Q 2157 2534 2157 2950 
Q 2157 3379 1920 3616 
Q 1683 3853 1267 3853 
Q 922 3853 720 3673 
Q 518 3494 326 3021 
L 192 3053 
Q 301 3648 630 3987 
Q 960 4326 1523 4326 
Q 2054 4326 2380 4006 
Q 2707 3686 2707 3200 
Q 2707 2477 1888 1613 
L 832 486 
L 2330 486 
Q 2541 486 2665 569 
Q 2790 653 2944 915 
L 3034 877 
z
" transform="scale(0.015625)"/>
       </defs>
       <use xlink:href="#STIXGeneral-Regular-5b"/>
       <use xlink:href="#STIXGeneral-Regular-30" transform="translate(33.299988 0)"/>
       <use xlink:href="#STIXGeneral-Regular-2e" transform="translate(83.299973 0)"/>
       <use xlink:href="#STIXGeneral-Regular-30" transform="translate(108.299957 0)"/>
       <use xlink:href="#STIXGeneral-Regular-38" transform="translate(158.299942 0)"/>
       <use xlink:href="#STIXGeneral-Regular-2c" transform="translate(208.299927 0)"/>
       <use xlink:href="#STIXGeneral-Regular-20" transform="translate(233.299911 0)"/>
       <use xlink:href="#STIXGeneral-Regular-30" transform="translate(258.299896 0)"/>
       <use xlink:href="#STIXGeneral-Regular-2e" transform="translate(308.299881 0)"/>
       <use xlink:href="#STIXGeneral-Regular-31" transform="translate(333.299866 0)"/>
       <use xlink:href="#STIXGeneral-Regular-32" transform="translate(383.29985 0)"/>
       <use xlink:href="#STIXGeneral-Regular-5d" transform="translate(433.299835 0)"/>
      </g>
     </g>
    </g>
    <g id="xtick_4">
     <g id="line2d_4">
      <g>
       <use xlink:href="#m115970648d" x="58.93012" y="145.8" style="stroke: #000000; stroke-width: 0.8"/>
      </g>
     </g>
     <g id="text_4">
      <!-- [0.12, 0.16] -->
      <g transform="translate(60.79387 190.1275) rotate(-90) scale(0.08 -0.08)">
       <defs>
        <path id="STIXGeneral-Regular-36" d="M 2854 4378 
L 2867 4275 
Q 2112 4154 1606 3664 
Q 1101 3174 973 2451 
Q 1344 2739 1786 2739 
Q 2349 2739 2672 2380 
Q 2995 2022 2995 1402 
Q 2995 774 2669 378 
Q 2291 -90 1651 -90 
Q 870 -90 518 557 
Q 218 1107 218 1786 
Q 218 2835 915 3552 
Q 1312 3962 1731 4131 
Q 2150 4301 2854 4378 
z
M 2419 1203 
Q 2419 2445 1555 2445 
Q 1235 2445 1024 2275 
Q 813 2106 813 1702 
Q 813 954 1046 522 
Q 1280 90 1722 90 
Q 2061 90 2240 394 
Q 2419 698 2419 1203 
z
" transform="scale(0.015625)"/>
       </defs>
       <use xlink:href="#STIXGeneral-Regular-5b"/>
       <use xlink:href="#STIXGeneral-Regular-30" transform="translate(33.299988 0)"/>
       <use xlink:href="#STIXGeneral-Regular-2e" transform="translate(83.299973 0)"/>
       <use xlink:href="#STIXGeneral-Regular-31" transform="translate(108.299957 0)"/>
       <use xlink:href="#STIXGeneral-Regular-32" transform="translate(158.299942 0)"/>
       <use xlink:href="#STIXGeneral-Regular-2c" transform="translate(208.299927 0)"/>
       <use xlink:href="#STIXGeneral-Regular-20" transform="translate(233.299911 0)"/>
       <use xlink:href="#STIXGeneral-Regular-30" transform="translate(258.299896 0)"/>
       <use xlink:href="#STIXGeneral-Regular-2e" transform="translate(308.299881 0)"/>
       <use xlink:href="#STIXGeneral-Regular-31" transform="translate(333.299866 0)"/>
       <use xlink:href="#STIXGeneral-Regular-36" transform="translate(383.29985 0)"/>
       <use xlink:href="#STIXGeneral-Regular-5d" transform="translate(433.299835 0)"/>
      </g>
     </g>
    </g>
    <g id="xtick_5">
     <g id="line2d_5">
      <g>
       <use xlink:href="#m115970648d" x="66.773494" y="145.8" style="stroke: #000000; stroke-width: 0.8"/>
      </g>
     </g>
     <g id="text_5">
      <!-- [0.16, 0.20] -->
      <g transform="translate(68.637244 190.1275) rotate(-90) scale(0.08 -0.08)">
       <use xlink:href="#STIXGeneral-Regular-5b"/>
       <use xlink:href="#STIXGeneral-Regular-30" transform="translate(33.299988 0)"/>
       <use xlink:href="#STIXGeneral-Regular-2e" transform="translate(83.299973 0)"/>
       <use xlink:href="#STIXGeneral-Regular-31" transform="translate(108.299957 0)"/>
       <use xlink:href="#STIXGeneral-Regular-36" transform="translate(158.299942 0)"/>
       <use xlink:href="#STIXGeneral-Regular-2c" transform="translate(208.299927 0)"/>
       <use xlink:href="#STIXGeneral-Regular-20" transform="translate(233.299911 0)"/>
       <use xlink:href="#STIXGeneral-Regular-30" transform="translate(258.299896 0)"/>
       <use xlink:href="#STIXGeneral-Regular-2e" transform="translate(308.299881 0)"/>
       <use xlink:href="#STIXGeneral-Regular-32" transform="translate(333.299866 0)"/>
       <use xlink:href="#STIXGeneral-Regular-30" transform="translate(383.29985 0)"/>
       <use xlink:href="#STIXGeneral-Regular-5d" transform="translate(433.299835 0)"/>
      </g>
     </g>
    </g>
    <g id="xtick_6">
     <g id="line2d_6">
      <g>
       <use xlink:href="#m115970648d" x="74.616867" y="145.8" style="stroke: #000000; stroke-width: 0.8"/>
      </g>
     </g>
     <g id="text_6">
      <!-- [0.20, 0.24] -->
      <g transform="translate(76.480617 190.1275) rotate(-90) scale(0.08 -0.08)">
       <use xlink:href="#STIXGeneral-Regular-5b"/>
       <use xlink:href="#STIXGeneral-Regular-30" transform="translate(33.299988 0)"/>
       <use xlink:href="#STIXGeneral-Regular-2e" transform="translate(83.299973 0)"/>
       <use xlink:href="#STIXGeneral-Regular-32" transform="translate(108.299957 0)"/>
       <use xlink:href="#STIXGeneral-Regular-30" transform="translate(158.299942 0)"/>
       <use xlink:href="#STIXGeneral-Regular-2c" transform="translate(208.299927 0)"/>
       <use xlink:href="#STIXGeneral-Regular-20" transform="translate(233.299911 0)"/>
       <use xlink:href="#STIXGeneral-Regular-30" transform="translate(258.299896 0)"/>
       <use xlink:href="#STIXGeneral-Regular-2e" transform="translate(308.299881 0)"/>
       <use xlink:href="#STIXGeneral-Regular-32" transform="translate(333.299866 0)"/>
       <use xlink:href="#STIXGeneral-Regular-34" transform="translate(383.29985 0)"/>
       <use xlink:href="#STIXGeneral-Regular-5d" transform="translate(433.299835 0)"/>
      </g>
     </g>
    </g>
    <g id="xtick_7">
     <g id="line2d_7">
      <g>
       <use xlink:href="#m115970648d" x="82.460241" y="145.8" style="stroke: #000000; stroke-width: 0.8"/>
      </g>
     </g>
     <g id="text_7">
      <!-- [0.24, 0.28] -->
      <g transform="translate(84.323991 190.1275) rotate(-90) scale(0.08 -0.08)">
       <use xlink:href="#STIXGeneral-Regular-5b"/>
       <use xlink:href="#STIXGeneral-Regular-30" transform="translate(33.299988 0)"/>
       <use xlink:href="#STIXGeneral-Regular-2e" transform="translate(83.299973 0)"/>
       <use xlink:href="#STIXGeneral-Regular-32" transform="translate(108.299957 0)"/>
       <use xlink:href="#STIXGeneral-Regular-34" transform="translate(158.299942 0)"/>
       <use xlink:href="#STIXGeneral-Regular-2c" transform="translate(208.299927 0)"/>
       <use xlink:href="#STIXGeneral-Regular-20" transform="translate(233.299911 0)"/>
       <use xlink:href="#STIXGeneral-Regular-30" transform="translate(258.299896 0)"/>
       <use xlink:href="#STIXGeneral-Regular-2e" transform="translate(308.299881 0)"/>
       <use xlink:href="#STIXGeneral-Regular-32" transform="translate(333.299866 0)"/>
       <use xlink:href="#STIXGeneral-Regular-38" transform="translate(383.29985 0)"/>
       <use xlink:href="#STIXGeneral-Regular-5d" transform="translate(433.299835 0)"/>
      </g>
     </g>
    </g>
    <g id="xtick_8">
     <g id="line2d_8">
      <g>
       <use xlink:href="#m115970648d" x="90.303614" y="145.8" style="stroke: #000000; stroke-width: 0.8"/>
      </g>
     </g>
     <g id="text_8">
      <!-- [0.28, 0.32] -->
      <g transform="translate(92.167364 190.1275) rotate(-90) scale(0.08 -0.08)">
       <defs>
        <path id="STIXGeneral-Regular-33" d="M 390 3264 
L 288 3290 
Q 435 3770 748 4048 
Q 1062 4326 1542 4326 
Q 1990 4326 2265 4083 
Q 2541 3840 2541 3450 
Q 2541 2925 1946 2566 
Q 2298 2413 2477 2227 
Q 2758 1914 2758 1402 
Q 2758 890 2464 506 
Q 2246 211 1840 60 
Q 1434 -90 979 -90 
Q 262 -90 262 275 
Q 262 378 339 442 
Q 416 506 525 506 
Q 685 506 915 339 
Q 1197 141 1466 141 
Q 1818 141 2058 425 
Q 2298 710 2298 1120 
Q 2298 1856 1632 2048 
Q 1434 2112 979 2112 
L 979 2202 
Q 1338 2323 1517 2432 
Q 2035 2726 2035 3290 
Q 2035 3610 1852 3776 
Q 1670 3942 1344 3942 
Q 768 3942 390 3264 
z
" transform="scale(0.015625)"/>
       </defs>
       <use xlink:href="#STIXGeneral-Regular-5b"/>
       <use xlink:href="#STIXGeneral-Regular-30" transform="translate(33.299988 0)"/>
       <use xlink:href="#STIXGeneral-Regular-2e" transform="translate(83.299973 0)"/>
       <use xlink:href="#STIXGeneral-Regular-32" transform="translate(108.299957 0)"/>
       <use xlink:href="#STIXGeneral-Regular-38" transform="translate(158.299942 0)"/>
       <use xlink:href="#STIXGeneral-Regular-2c" transform="translate(208.299927 0)"/>
       <use xlink:href="#STIXGeneral-Regular-20" transform="translate(233.299911 0)"/>
       <use xlink:href="#STIXGeneral-Regular-30" transform="translate(258.299896 0)"/>
       <use xlink:href="#STIXGeneral-Regular-2e" transform="translate(308.299881 0)"/>
       <use xlink:href="#STIXGeneral-Regular-33" transform="translate(333.299866 0)"/>
       <use xlink:href="#STIXGeneral-Regular-32" transform="translate(383.29985 0)"/>
       <use xlink:href="#STIXGeneral-Regular-5d" transform="translate(433.299835 0)"/>
      </g>
     </g>
    </g>
    <g id="xtick_9">
     <g id="line2d_9">
      <g>
       <use xlink:href="#m115970648d" x="98.146988" y="145.8" style="stroke: #000000; stroke-width: 0.8"/>
      </g>
     </g>
     <g id="text_9">
      <!-- [0.32, 0.36] -->
      <g transform="translate(100.010738 190.1275) rotate(-90) scale(0.08 -0.08)">
       <use xlink:href="#STIXGeneral-Regular-5b"/>
       <use xlink:href="#STIXGeneral-Regular-30" transform="translate(33.299988 0)"/>
       <use xlink:href="#STIXGeneral-Regular-2e" transform="translate(83.299973 0)"/>
       <use xlink:href="#STIXGeneral-Regular-33" transform="translate(108.299957 0)"/>
       <use xlink:href="#STIXGeneral-Regular-32" transform="translate(158.299942 0)"/>
       <use xlink:href="#STIXGeneral-Regular-2c" transform="translate(208.299927 0)"/>
       <use xlink:href="#STIXGeneral-Regular-20" transform="translate(233.299911 0)"/>
       <use xlink:href="#STIXGeneral-Regular-30" transform="translate(258.299896 0)"/>
       <use xlink:href="#STIXGeneral-Regular-2e" transform="translate(308.299881 0)"/>
       <use xlink:href="#STIXGeneral-Regular-33" transform="translate(333.299866 0)"/>
       <use xlink:href="#STIXGeneral-Regular-36" transform="translate(383.29985 0)"/>
       <use xlink:href="#STIXGeneral-Regular-5d" transform="translate(433.299835 0)"/>
      </g>
     </g>
    </g>
    <g id="xtick_10">
     <g id="line2d_10">
      <g>
       <use xlink:href="#m115970648d" x="105.990361" y="145.8" style="stroke: #000000; stroke-width: 0.8"/>
      </g>
     </g>
     <g id="text_10">
      <!-- [0.36, 0.40] -->
      <g transform="translate(107.854111 190.1275) rotate(-90) scale(0.08 -0.08)">
       <use xlink:href="#STIXGeneral-Regular-5b"/>
       <use xlink:href="#STIXGeneral-Regular-30" transform="translate(33.299988 0)"/>
       <use xlink:href="#STIXGeneral-Regular-2e" transform="translate(83.299973 0)"/>
       <use xlink:href="#STIXGeneral-Regular-33" transform="translate(108.299957 0)"/>
       <use xlink:href="#STIXGeneral-Regular-36" transform="translate(158.299942 0)"/>
       <use xlink:href="#STIXGeneral-Regular-2c" transform="translate(208.299927 0)"/>
       <use xlink:href="#STIXGeneral-Regular-20" transform="translate(233.299911 0)"/>
       <use xlink:href="#STIXGeneral-Regular-30" transform="translate(258.299896 0)"/>
       <use xlink:href="#STIXGeneral-Regular-2e" transform="translate(308.299881 0)"/>
       <use xlink:href="#STIXGeneral-Regular-34" transform="translate(333.299866 0)"/>
       <use xlink:href="#STIXGeneral-Regular-30" transform="translate(383.29985 0)"/>
       <use xlink:href="#STIXGeneral-Regular-5d" transform="translate(433.299835 0)"/>
      </g>
     </g>
    </g>
    <g id="xtick_11">
     <g id="line2d_11">
      <g>
       <use xlink:href="#m115970648d" x="113.833735" y="145.8" style="stroke: #000000; stroke-width: 0.8"/>
      </g>
     </g>
     <g id="text_11">
      <!-- [0.40, 0.44] -->
      <g transform="translate(115.697485 190.1275) rotate(-90) scale(0.08 -0.08)">
       <use xlink:href="#STIXGeneral-Regular-5b"/>
       <use xlink:href="#STIXGeneral-Regular-30" transform="translate(33.299988 0)"/>
       <use xlink:href="#STIXGeneral-Regular-2e" transform="translate(83.299973 0)"/>
       <use xlink:href="#STIXGeneral-Regular-34" transform="translate(108.299957 0)"/>
       <use xlink:href="#STIXGeneral-Regular-30" transform="translate(158.299942 0)"/>
       <use xlink:href="#STIXGeneral-Regular-2c" transform="translate(208.299927 0)"/>
       <use xlink:href="#STIXGeneral-Regular-20" transform="translate(233.299911 0)"/>
       <use xlink:href="#STIXGeneral-Regular-30" transform="translate(258.299896 0)"/>
       <use xlink:href="#STIXGeneral-Regular-2e" transform="translate(308.299881 0)"/>
       <use xlink:href="#STIXGeneral-Regular-34" transform="translate(333.299866 0)"/>
       <use xlink:href="#STIXGeneral-Regular-34" transform="translate(383.29985 0)"/>
       <use xlink:href="#STIXGeneral-Regular-5d" transform="translate(433.299835 0)"/>
      </g>
     </g>
    </g>
    <g id="xtick_12">
     <g id="line2d_12">
      <g>
       <use xlink:href="#m115970648d" x="121.677108" y="145.8" style="stroke: #000000; stroke-width: 0.8"/>
      </g>
     </g>
     <g id="text_12">
      <!-- [0.44, 0.48] -->
      <g transform="translate(123.540858 190.1275) rotate(-90) scale(0.08 -0.08)">
       <use xlink:href="#STIXGeneral-Regular-5b"/>
       <use xlink:href="#STIXGeneral-Regular-30" transform="translate(33.299988 0)"/>
       <use xlink:href="#STIXGeneral-Regular-2e" transform="translate(83.299973 0)"/>
       <use xlink:href="#STIXGeneral-Regular-34" transform="translate(108.299957 0)"/>
       <use xlink:href="#STIXGeneral-Regular-34" transform="translate(158.299942 0)"/>
       <use xlink:href="#STIXGeneral-Regular-2c" transform="translate(208.299927 0)"/>
       <use xlink:href="#STIXGeneral-Regular-20" transform="translate(233.299911 0)"/>
       <use xlink:href="#STIXGeneral-Regular-30" transform="translate(258.299896 0)"/>
       <use xlink:href="#STIXGeneral-Regular-2e" transform="translate(308.299881 0)"/>
       <use xlink:href="#STIXGeneral-Regular-34" transform="translate(333.299866 0)"/>
       <use xlink:href="#STIXGeneral-Regular-38" transform="translate(383.29985 0)"/>
       <use xlink:href="#STIXGeneral-Regular-5d" transform="translate(433.299835 0)"/>
      </g>
     </g>
    </g>
    <g id="xtick_13">
     <g id="line2d_13">
      <g>
       <use xlink:href="#m115970648d" x="129.520482" y="145.8" style="stroke: #000000; stroke-width: 0.8"/>
      </g>
     </g>
     <g id="text_13">
      <!-- [0.48, 0.52] -->
      <g transform="translate(131.384232 190.1275) rotate(-90) scale(0.08 -0.08)">
       <defs>
        <path id="STIXGeneral-Regular-35" d="M 2803 4358 
L 2573 3814 
Q 2534 3731 2400 3731 
L 1158 3731 
L 902 3187 
Q 1606 3053 1920 2896 
Q 2234 2739 2502 2368 
Q 2726 2061 2726 1555 
Q 2726 1094 2576 780 
Q 2426 467 2099 224 
Q 1664 -90 1011 -90 
Q 646 -90 422 19 
Q 198 128 198 307 
Q 198 550 486 550 
Q 717 550 960 352 
Q 1210 147 1414 147 
Q 1747 147 2012 480 
Q 2278 813 2278 1229 
Q 2278 1843 1850 2189 
Q 1293 2637 486 2637 
Q 410 2637 410 2688 
L 416 2720 
L 1114 4237 
L 2438 4237 
Q 2547 4237 2608 4269 
Q 2669 4301 2746 4403 
L 2803 4358 
z
" transform="scale(0.015625)"/>
       </defs>
       <use xlink:href="#STIXGeneral-Regular-5b"/>
       <use xlink:href="#STIXGeneral-Regular-30" transform="translate(33.299988 0)"/>
       <use xlink:href="#STIXGeneral-Regular-2e" transform="translate(83.299973 0)"/>
       <use xlink:href="#STIXGeneral-Regular-34" transform="translate(108.299957 0)"/>
       <use xlink:href="#STIXGeneral-Regular-38" transform="translate(158.299942 0)"/>
       <use xlink:href="#STIXGeneral-Regular-2c" transform="translate(208.299927 0)"/>
       <use xlink:href="#STIXGeneral-Regular-20" transform="translate(233.299911 0)"/>
       <use xlink:href="#STIXGeneral-Regular-30" transform="translate(258.299896 0)"/>
       <use xlink:href="#STIXGeneral-Regular-2e" transform="translate(308.299881 0)"/>
       <use xlink:href="#STIXGeneral-Regular-35" transform="translate(333.299866 0)"/>
       <use xlink:href="#STIXGeneral-Regular-32" transform="translate(383.29985 0)"/>
       <use xlink:href="#STIXGeneral-Regular-5d" transform="translate(433.299835 0)"/>
      </g>
     </g>
    </g>
    <g id="xtick_14">
     <g id="line2d_14">
      <g>
       <use xlink:href="#m115970648d" x="137.363855" y="145.8" style="stroke: #000000; stroke-width: 0.8"/>
      </g>
     </g>
     <g id="text_14">
      <!-- [0.52, 0.56] -->
      <g transform="translate(139.227605 190.1275) rotate(-90) scale(0.08 -0.08)">
       <use xlink:href="#STIXGeneral-Regular-5b"/>
       <use xlink:href="#STIXGeneral-Regular-30" transform="translate(33.299988 0)"/>
       <use xlink:href="#STIXGeneral-Regular-2e" transform="translate(83.299973 0)"/>
       <use xlink:href="#STIXGeneral-Regular-35" transform="translate(108.299957 0)"/>
       <use xlink:href="#STIXGeneral-Regular-32" transform="translate(158.299942 0)"/>
       <use xlink:href="#STIXGeneral-Regular-2c" transform="translate(208.299927 0)"/>
       <use xlink:href="#STIXGeneral-Regular-20" transform="translate(233.299911 0)"/>
       <use xlink:href="#STIXGeneral-Regular-30" transform="translate(258.299896 0)"/>
       <use xlink:href="#STIXGeneral-Regular-2e" transform="translate(308.299881 0)"/>
       <use xlink:href="#STIXGeneral-Regular-35" transform="translate(333.299866 0)"/>
       <use xlink:href="#STIXGeneral-Regular-36" transform="translate(383.29985 0)"/>
       <use xlink:href="#STIXGeneral-Regular-5d" transform="translate(433.299835 0)"/>
      </g>
     </g>
    </g>
    <g id="xtick_15">
     <g id="line2d_15">
      <g>
       <use xlink:href="#m115970648d" x="145.207229" y="145.8" style="stroke: #000000; stroke-width: 0.8"/>
      </g>
     </g>
     <g id="text_15">
      <!-- [0.56, 0.60] -->
      <g transform="translate(147.070979 190.1275) rotate(-90) scale(0.08 -0.08)">
       <use xlink:href="#STIXGeneral-Regular-5b"/>
       <use xlink:href="#STIXGeneral-Regular-30" transform="translate(33.299988 0)"/>
       <use xlink:href="#STIXGeneral-Regular-2e" transform="translate(83.299973 0)"/>
       <use xlink:href="#STIXGeneral-Regular-35" transform="translate(108.299957 0)"/>
       <use xlink:href="#STIXGeneral-Regular-36" transform="translate(158.299942 0)"/>
       <use xlink:href="#STIXGeneral-Regular-2c" transform="translate(208.299927 0)"/>
       <use xlink:href="#STIXGeneral-Regular-20" transform="translate(233.299911 0)"/>
       <use xlink:href="#STIXGeneral-Regular-30" transform="translate(258.299896 0)"/>
       <use xlink:href="#STIXGeneral-Regular-2e" transform="translate(308.299881 0)"/>
       <use xlink:href="#STIXGeneral-Regular-36" transform="translate(333.299866 0)"/>
       <use xlink:href="#STIXGeneral-Regular-30" transform="translate(383.29985 0)"/>
       <use xlink:href="#STIXGeneral-Regular-5d" transform="translate(433.299835 0)"/>
      </g>
     </g>
    </g>
    <g id="xtick_16">
     <g id="line2d_16">
      <g>
       <use xlink:href="#m115970648d" x="153.050602" y="145.8" style="stroke: #000000; stroke-width: 0.8"/>
      </g>
     </g>
     <g id="text_16">
      <!-- [0.60, 0.64] -->
      <g transform="translate(154.914352 190.1275) rotate(-90) scale(0.08 -0.08)">
       <use xlink:href="#STIXGeneral-Regular-5b"/>
       <use xlink:href="#STIXGeneral-Regular-30" transform="translate(33.299988 0)"/>
       <use xlink:href="#STIXGeneral-Regular-2e" transform="translate(83.299973 0)"/>
       <use xlink:href="#STIXGeneral-Regular-36" transform="translate(108.299957 0)"/>
       <use xlink:href="#STIXGeneral-Regular-30" transform="translate(158.299942 0)"/>
       <use xlink:href="#STIXGeneral-Regular-2c" transform="translate(208.299927 0)"/>
       <use xlink:href="#STIXGeneral-Regular-20" transform="translate(233.299911 0)"/>
       <use xlink:href="#STIXGeneral-Regular-30" transform="translate(258.299896 0)"/>
       <use xlink:href="#STIXGeneral-Regular-2e" transform="translate(308.299881 0)"/>
       <use xlink:href="#STIXGeneral-Regular-36" transform="translate(333.299866 0)"/>
       <use xlink:href="#STIXGeneral-Regular-34" transform="translate(383.29985 0)"/>
       <use xlink:href="#STIXGeneral-Regular-5d" transform="translate(433.299835 0)"/>
      </g>
     </g>
    </g>
    <g id="xtick_17">
     <g id="line2d_17">
      <g>
       <use xlink:href="#m115970648d" x="160.893976" y="145.8" style="stroke: #000000; stroke-width: 0.8"/>
      </g>
     </g>
     <g id="text_17">
      <!-- [0.64, 0.68] -->
      <g transform="translate(162.757726 190.1275) rotate(-90) scale(0.08 -0.08)">
       <use xlink:href="#STIXGeneral-Regular-5b"/>
       <use xlink:href="#STIXGeneral-Regular-30" transform="translate(33.299988 0)"/>
       <use xlink:href="#STIXGeneral-Regular-2e" transform="translate(83.299973 0)"/>
       <use xlink:href="#STIXGeneral-Regular-36" transform="translate(108.299957 0)"/>
       <use xlink:href="#STIXGeneral-Regular-34" transform="translate(158.299942 0)"/>
       <use xlink:href="#STIXGeneral-Regular-2c" transform="translate(208.299927 0)"/>
       <use xlink:href="#STIXGeneral-Regular-20" transform="translate(233.299911 0)"/>
       <use xlink:href="#STIXGeneral-Regular-30" transform="translate(258.299896 0)"/>
       <use xlink:href="#STIXGeneral-Regular-2e" transform="translate(308.299881 0)"/>
       <use xlink:href="#STIXGeneral-Regular-36" transform="translate(333.299866 0)"/>
       <use xlink:href="#STIXGeneral-Regular-38" transform="translate(383.29985 0)"/>
       <use xlink:href="#STIXGeneral-Regular-5d" transform="translate(433.299835 0)"/>
      </g>
     </g>
    </g>
    <g id="xtick_18">
     <g id="line2d_18">
      <g>
       <use xlink:href="#m115970648d" x="168.737349" y="145.8" style="stroke: #000000; stroke-width: 0.8"/>
      </g>
     </g>
     <g id="text_18">
      <!-- [0.68, 0.72] -->
      <g transform="translate(170.601099 190.1275) rotate(-90) scale(0.08 -0.08)">
       <defs>
        <path id="STIXGeneral-Regular-37" d="M 2874 4134 
L 1517 -51 
L 1101 -51 
L 2368 3763 
L 992 3763 
Q 717 3763 582 3667 
Q 448 3571 243 3238 
L 128 3296 
L 512 4237 
L 2874 4237 
L 2874 4134 
z
" transform="scale(0.015625)"/>
       </defs>
       <use xlink:href="#STIXGeneral-Regular-5b"/>
       <use xlink:href="#STIXGeneral-Regular-30" transform="translate(33.299988 0)"/>
       <use xlink:href="#STIXGeneral-Regular-2e" transform="translate(83.299973 0)"/>
       <use xlink:href="#STIXGeneral-Regular-36" transform="translate(108.299957 0)"/>
       <use xlink:href="#STIXGeneral-Regular-38" transform="translate(158.299942 0)"/>
       <use xlink:href="#STIXGeneral-Regular-2c" transform="translate(208.299927 0)"/>
       <use xlink:href="#STIXGeneral-Regular-20" transform="translate(233.299911 0)"/>
       <use xlink:href="#STIXGeneral-Regular-30" transform="translate(258.299896 0)"/>
       <use xlink:href="#STIXGeneral-Regular-2e" transform="translate(308.299881 0)"/>
       <use xlink:href="#STIXGeneral-Regular-37" transform="translate(333.299866 0)"/>
       <use xlink:href="#STIXGeneral-Regular-32" transform="translate(383.29985 0)"/>
       <use xlink:href="#STIXGeneral-Regular-5d" transform="translate(433.299835 0)"/>
      </g>
     </g>
    </g>
    <g id="xtick_19">
     <g id="line2d_19">
      <g>
       <use xlink:href="#m115970648d" x="176.580723" y="145.8" style="stroke: #000000; stroke-width: 0.8"/>
      </g>
     </g>
     <g id="text_19">
      <!-- [0.72, 0.76] -->
      <g transform="translate(178.444473 190.1275) rotate(-90) scale(0.08 -0.08)">
       <use xlink:href="#STIXGeneral-Regular-5b"/>
       <use xlink:href="#STIXGeneral-Regular-30" transform="translate(33.299988 0)"/>
       <use xlink:href="#STIXGeneral-Regular-2e" transform="translate(83.299973 0)"/>
       <use xlink:href="#STIXGeneral-Regular-37" transform="translate(108.299957 0)"/>
       <use xlink:href="#STIXGeneral-Regular-32" transform="translate(158.299942 0)"/>
       <use xlink:href="#STIXGeneral-Regular-2c" transform="translate(208.299927 0)"/>
       <use xlink:href="#STIXGeneral-Regular-20" transform="translate(233.299911 0)"/>
       <use xlink:href="#STIXGeneral-Regular-30" transform="translate(258.299896 0)"/>
       <use xlink:href="#STIXGeneral-Regular-2e" transform="translate(308.299881 0)"/>
       <use xlink:href="#STIXGeneral-Regular-37" transform="translate(333.299866 0)"/>
       <use xlink:href="#STIXGeneral-Regular-36" transform="translate(383.29985 0)"/>
       <use xlink:href="#STIXGeneral-Regular-5d" transform="translate(433.299835 0)"/>
      </g>
     </g>
    </g>
    <g id="xtick_20">
     <g id="line2d_20">
      <g>
       <use xlink:href="#m115970648d" x="184.424096" y="145.8" style="stroke: #000000; stroke-width: 0.8"/>
      </g>
     </g>
     <g id="text_20">
      <!-- [0.76, 0.80] -->
      <g transform="translate(186.287846 190.1275) rotate(-90) scale(0.08 -0.08)">
       <use xlink:href="#STIXGeneral-Regular-5b"/>
       <use xlink:href="#STIXGeneral-Regular-30" transform="translate(33.299988 0)"/>
       <use xlink:href="#STIXGeneral-Regular-2e" transform="translate(83.299973 0)"/>
       <use xlink:href="#STIXGeneral-Regular-37" transform="translate(108.299957 0)"/>
       <use xlink:href="#STIXGeneral-Regular-36" transform="translate(158.299942 0)"/>
       <use xlink:href="#STIXGeneral-Regular-2c" transform="translate(208.299927 0)"/>
       <use xlink:href="#STIXGeneral-Regular-20" transform="translate(233.299911 0)"/>
       <use xlink:href="#STIXGeneral-Regular-30" transform="translate(258.299896 0)"/>
       <use xlink:href="#STIXGeneral-Regular-2e" transform="translate(308.299881 0)"/>
       <use xlink:href="#STIXGeneral-Regular-38" transform="translate(333.299866 0)"/>
       <use xlink:href="#STIXGeneral-Regular-30" transform="translate(383.29985 0)"/>
       <use xlink:href="#STIXGeneral-Regular-5d" transform="translate(433.299835 0)"/>
      </g>
     </g>
    </g>
    <g id="xtick_21">
     <g id="line2d_21">
      <g>
       <use xlink:href="#m115970648d" x="192.26747" y="145.8" style="stroke: #000000; stroke-width: 0.8"/>
      </g>
     </g>
     <g id="text_21">
      <!-- [0.80, 0.84] -->
      <g transform="translate(194.13122 190.1275) rotate(-90) scale(0.08 -0.08)">
       <use xlink:href="#STIXGeneral-Regular-5b"/>
       <use xlink:href="#STIXGeneral-Regular-30" transform="translate(33.299988 0)"/>
       <use xlink:href="#STIXGeneral-Regular-2e" transform="translate(83.299973 0)"/>
       <use xlink:href="#STIXGeneral-Regular-38" transform="translate(108.299957 0)"/>
       <use xlink:href="#STIXGeneral-Regular-30" transform="translate(158.299942 0)"/>
       <use xlink:href="#STIXGeneral-Regular-2c" transform="translate(208.299927 0)"/>
       <use xlink:href="#STIXGeneral-Regular-20" transform="translate(233.299911 0)"/>
       <use xlink:href="#STIXGeneral-Regular-30" transform="translate(258.299896 0)"/>
       <use xlink:href="#STIXGeneral-Regular-2e" transform="translate(308.299881 0)"/>
       <use xlink:href="#STIXGeneral-Regular-38" transform="translate(333.299866 0)"/>
       <use xlink:href="#STIXGeneral-Regular-34" transform="translate(383.29985 0)"/>
       <use xlink:href="#STIXGeneral-Regular-5d" transform="translate(433.299835 0)"/>
      </g>
     </g>
    </g>
    <g id="xtick_22">
     <g id="line2d_22">
      <g>
       <use xlink:href="#m115970648d" x="200.110843" y="145.8" style="stroke: #000000; stroke-width: 0.8"/>
      </g>
     </g>
     <g id="text_22">
      <!-- [0.84, 0.88] -->
      <g transform="translate(201.974593 190.1275) rotate(-90) scale(0.08 -0.08)">
       <use xlink:href="#STIXGeneral-Regular-5b"/>
       <use xlink:href="#STIXGeneral-Regular-30" transform="translate(33.299988 0)"/>
       <use xlink:href="#STIXGeneral-Regular-2e" transform="translate(83.299973 0)"/>
       <use xlink:href="#STIXGeneral-Regular-38" transform="translate(108.299957 0)"/>
       <use xlink:href="#STIXGeneral-Regular-34" transform="translate(158.299942 0)"/>
       <use xlink:href="#STIXGeneral-Regular-2c" transform="translate(208.299927 0)"/>
       <use xlink:href="#STIXGeneral-Regular-20" transform="translate(233.299911 0)"/>
       <use xlink:href="#STIXGeneral-Regular-30" transform="translate(258.299896 0)"/>
       <use xlink:href="#STIXGeneral-Regular-2e" transform="translate(308.299881 0)"/>
       <use xlink:href="#STIXGeneral-Regular-38" transform="translate(333.299866 0)"/>
       <use xlink:href="#STIXGeneral-Regular-38" transform="translate(383.29985 0)"/>
       <use xlink:href="#STIXGeneral-Regular-5d" transform="translate(433.299835 0)"/>
      </g>
     </g>
    </g>
    <g id="xtick_23">
     <g id="line2d_23">
      <g>
       <use xlink:href="#m115970648d" x="207.954217" y="145.8" style="stroke: #000000; stroke-width: 0.8"/>
      </g>
     </g>
     <g id="text_23">
      <!-- [0.88, 0.92] -->
      <g transform="translate(209.817967 190.1275) rotate(-90) scale(0.08 -0.08)">
       <defs>
        <path id="STIXGeneral-Regular-39" d="M 378 -141 
L 358 -13 
Q 1094 115 1603 608 
Q 2112 1101 2304 1882 
Q 1933 1517 1344 1517 
Q 826 1517 509 1875 
Q 192 2234 192 2816 
Q 192 3462 573 3894 
Q 954 4326 1523 4326 
Q 2131 4326 2528 3840 
Q 2938 3328 2938 2522 
Q 2938 1958 2742 1462 
Q 2547 966 2170 621 
Q 1773 262 1395 105 
Q 1018 -51 378 -141 
z
M 2317 2272 
L 2317 2522 
Q 2317 4147 1472 4147 
Q 1171 4147 1005 3930 
Q 909 3802 845 3546 
Q 781 3290 781 3034 
Q 781 2464 995 2128 
Q 1210 1792 1568 1792 
Q 1824 1792 2070 1917 
Q 2317 2042 2317 2272 
z
" transform="scale(0.015625)"/>
       </defs>
       <use xlink:href="#STIXGeneral-Regular-5b"/>
       <use xlink:href="#STIXGeneral-Regular-30" transform="translate(33.299988 0)"/>
       <use xlink:href="#STIXGeneral-Regular-2e" transform="translate(83.299973 0)"/>
       <use xlink:href="#STIXGeneral-Regular-38" transform="translate(108.299957 0)"/>
       <use xlink:href="#STIXGeneral-Regular-38" transform="translate(158.299942 0)"/>
       <use xlink:href="#STIXGeneral-Regular-2c" transform="translate(208.299927 0)"/>
       <use xlink:href="#STIXGeneral-Regular-20" transform="translate(233.299911 0)"/>
       <use xlink:href="#STIXGeneral-Regular-30" transform="translate(258.299896 0)"/>
       <use xlink:href="#STIXGeneral-Regular-2e" transform="translate(308.299881 0)"/>
       <use xlink:href="#STIXGeneral-Regular-39" transform="translate(333.299866 0)"/>
       <use xlink:href="#STIXGeneral-Regular-32" transform="translate(383.29985 0)"/>
       <use xlink:href="#STIXGeneral-Regular-5d" transform="translate(433.299835 0)"/>
      </g>
     </g>
    </g>
    <g id="xtick_24">
     <g id="line2d_24">
      <g>
       <use xlink:href="#m115970648d" x="215.79759" y="145.8" style="stroke: #000000; stroke-width: 0.8"/>
      </g>
     </g>
     <g id="text_24">
      <!-- [0.92, 0.96] -->
      <g transform="translate(217.66134 190.1275) rotate(-90) scale(0.08 -0.08)">
       <use xlink:href="#STIXGeneral-Regular-5b"/>
       <use xlink:href="#STIXGeneral-Regular-30" transform="translate(33.299988 0)"/>
       <use xlink:href="#STIXGeneral-Regular-2e" transform="translate(83.299973 0)"/>
       <use xlink:href="#STIXGeneral-Regular-39" transform="translate(108.299957 0)"/>
       <use xlink:href="#STIXGeneral-Regular-32" transform="translate(158.299942 0)"/>
       <use xlink:href="#STIXGeneral-Regular-2c" transform="translate(208.299927 0)"/>
       <use xlink:href="#STIXGeneral-Regular-20" transform="translate(233.299911 0)"/>
       <use xlink:href="#STIXGeneral-Regular-30" transform="translate(258.299896 0)"/>
       <use xlink:href="#STIXGeneral-Regular-2e" transform="translate(308.299881 0)"/>
       <use xlink:href="#STIXGeneral-Regular-39" transform="translate(333.299866 0)"/>
       <use xlink:href="#STIXGeneral-Regular-36" transform="translate(383.29985 0)"/>
       <use xlink:href="#STIXGeneral-Regular-5d" transform="translate(433.299835 0)"/>
      </g>
     </g>
    </g>
    <g id="xtick_25">
     <g id="line2d_25">
      <g>
       <use xlink:href="#m115970648d" x="223.640964" y="145.8" style="stroke: #000000; stroke-width: 0.8"/>
      </g>
     </g>
     <g id="text_25">
      <!-- [0.96, 1.00] -->
      <g transform="translate(225.504714 190.1275) rotate(-90) scale(0.08 -0.08)">
       <use xlink:href="#STIXGeneral-Regular-5b"/>
       <use xlink:href="#STIXGeneral-Regular-30" transform="translate(33.299988 0)"/>
       <use xlink:href="#STIXGeneral-Regular-2e" transform="translate(83.299973 0)"/>
       <use xlink:href="#STIXGeneral-Regular-39" transform="translate(108.299957 0)"/>
       <use xlink:href="#STIXGeneral-Regular-36" transform="translate(158.299942 0)"/>
       <use xlink:href="#STIXGeneral-Regular-2c" transform="translate(208.299927 0)"/>
       <use xlink:href="#STIXGeneral-Regular-20" transform="translate(233.299911 0)"/>
       <use xlink:href="#STIXGeneral-Regular-31" transform="translate(258.299896 0)"/>
       <use xlink:href="#STIXGeneral-Regular-2e" transform="translate(308.299881 0)"/>
       <use xlink:href="#STIXGeneral-Regular-30" transform="translate(333.299866 0)"/>
       <use xlink:href="#STIXGeneral-Regular-30" transform="translate(383.29985 0)"/>
       <use xlink:href="#STIXGeneral-Regular-5d" transform="translate(433.299835 0)"/>
      </g>
     </g>
    </g>
    <g id="text_26">
     <!-- SQI Intervals -->
     <g transform="translate(111.61 199.59125) scale(0.08 -0.08)">
      <defs>
       <path id="STIXGeneral-Regular-53" d="M 3002 2963 
L 2842 2963 
Q 2733 3360 2579 3565 
Q 2189 4064 1651 4064 
Q 1357 4064 1181 3894 
Q 1005 3725 1005 3456 
Q 1005 3328 1069 3206 
Q 1133 3085 1206 2998 
Q 1280 2912 1465 2784 
Q 1651 2656 1766 2589 
Q 1882 2522 2150 2362 
Q 2669 2061 2905 1763 
Q 3142 1466 3142 1107 
Q 3142 576 2771 243 
Q 2400 -90 1837 -90 
Q 1421 -90 1082 58 
Q 915 128 781 128 
Q 704 128 653 70 
Q 602 13 602 -83 
L 461 -83 
L 275 1274 
L 416 1274 
Q 845 141 1734 141 
Q 2074 141 2285 342 
Q 2496 544 2496 858 
Q 2496 1158 2310 1363 
Q 2003 1696 1235 2106 
Q 454 2522 454 3206 
Q 454 3718 768 4022 
Q 1082 4326 1568 4326 
Q 1907 4326 2240 4186 
Q 2413 4109 2522 4109 
Q 2688 4109 2726 4326 
L 2861 4326 
L 3002 2963 
z
" transform="scale(0.015625)"/>
       <path id="STIXGeneral-Regular-51" d="M 4486 -1133 
L 4179 -1133 
Q 2586 -1133 1958 -339 
L 1696 -6 
Q 1312 128 1097 265 
Q 883 403 704 640 
Q 218 1286 218 2125 
Q 218 3123 806 3724 
Q 1395 4326 2310 4326 
Q 3232 4326 3817 3721 
Q 4403 3117 4403 2131 
Q 4403 1568 4236 1158 
Q 4070 749 3712 410 
Q 3514 211 3293 115 
Q 3072 19 2726 -45 
Q 3066 -531 3491 -758 
Q 3917 -986 4486 -1018 
L 4486 -1133 
z
M 3674 2163 
Q 3674 2714 3520 3146 
Q 3366 3578 3091 3808 
Q 2746 4096 2291 4096 
Q 1741 4096 1370 3642 
Q 1178 3418 1062 3008 
Q 947 2598 947 2144 
Q 947 1158 1318 640 
Q 1472 416 1750 278 
Q 2029 141 2310 141 
Q 2867 141 3264 602 
Q 3456 819 3565 1248 
Q 3674 1677 3674 2163 
z
" transform="scale(0.015625)"/>
       <path id="STIXGeneral-Regular-49" d="M 2016 0 
L 115 0 
L 115 122 
Q 518 134 627 240 
Q 736 346 736 717 
L 736 3526 
Q 736 3898 633 3994 
Q 531 4090 115 4115 
L 115 4237 
L 2016 4237 
L 2016 4115 
Q 1613 4096 1501 3993 
Q 1389 3891 1389 3526 
L 1389 717 
Q 1389 358 1504 246 
Q 1619 134 2016 122 
L 2016 0 
z
" transform="scale(0.015625)"/>
       <path id="STIXGeneral-Regular-6e" d="M 3104 0 
L 1773 0 
L 1779 96 
Q 2016 115 2096 233 
Q 2176 352 2176 672 
L 2176 1946 
Q 2176 2592 1709 2592 
Q 1549 2592 1408 2515 
Q 1267 2438 1050 2227 
L 1050 461 
Q 1050 269 1136 192 
Q 1222 115 1466 96 
L 1466 0 
L 115 0 
L 115 96 
Q 358 115 435 214 
Q 512 314 512 602 
L 512 2157 
Q 512 2394 467 2483 
Q 422 2573 288 2573 
Q 160 2573 102 2547 
L 102 2656 
Q 550 2784 979 2944 
L 1030 2925 
L 1030 2426 
L 1037 2426 
Q 1491 2944 1958 2944 
Q 2323 2944 2518 2688 
Q 2714 2432 2714 1958 
L 2714 544 
Q 2714 288 2790 205 
Q 2867 122 3104 96 
L 3104 0 
z
" transform="scale(0.015625)"/>
       <path id="STIXGeneral-Regular-74" d="M 1702 493 
L 1786 422 
Q 1478 -64 1011 -64 
Q 448 -64 448 749 
L 448 2675 
L 109 2675 
Q 83 2694 83 2720 
Q 83 2771 192 2842 
Q 435 2982 813 3526 
Q 826 3546 874 3606 
Q 922 3667 941 3706 
Q 986 3706 986 3622 
L 986 2880 
L 1632 2880 
L 1632 2675 
L 986 2675 
L 986 845 
Q 986 538 1062 403 
Q 1139 269 1318 269 
Q 1510 269 1702 493 
z
" transform="scale(0.015625)"/>
       <path id="STIXGeneral-Regular-65" d="M 2611 1050 
L 2714 1005 
Q 2330 -64 1376 -64 
Q 813 -64 486 329 
Q 160 723 160 1389 
Q 160 2074 525 2509 
Q 890 2944 1485 2944 
Q 2061 2944 2374 2502 
Q 2560 2246 2592 1773 
L 621 1773 
Q 646 1370 700 1158 
Q 755 947 915 730 
Q 1184 378 1626 378 
Q 1939 378 2153 531 
Q 2368 685 2611 1050 
z
M 634 1978 
L 1939 1978 
Q 1882 2381 1750 2547 
Q 1619 2714 1312 2714 
Q 1043 2714 864 2525 
Q 685 2336 634 1978 
z
" transform="scale(0.015625)"/>
       <path id="STIXGeneral-Regular-72" d="M 1024 2931 
L 1024 2342 
Q 1267 2688 1430 2816 
Q 1594 2944 1792 2944 
Q 1958 2944 2051 2854 
Q 2144 2765 2144 2605 
Q 2144 2470 2077 2393 
Q 2010 2317 1894 2317 
Q 1773 2317 1638 2445 
Q 1536 2541 1472 2541 
Q 1338 2541 1181 2355 
Q 1024 2170 1024 2016 
L 1024 576 
Q 1024 301 1133 205 
Q 1242 109 1568 96 
L 1568 0 
L 32 0 
L 32 96 
Q 339 154 412 224 
Q 486 294 486 538 
L 486 2138 
Q 486 2349 438 2435 
Q 390 2522 269 2522 
Q 166 2522 45 2496 
L 45 2598 
Q 448 2726 992 2944 
L 1024 2931 
z
" transform="scale(0.015625)"/>
       <path id="STIXGeneral-Regular-76" d="M 3053 2880 
L 3053 2784 
Q 2906 2771 2835 2688 
Q 2765 2605 2637 2285 
L 1818 230 
Q 1690 -90 1638 -90 
Q 1587 -90 1523 77 
Q 1510 96 1497 141 
Q 1485 186 1472 211 
L 704 2048 
Q 499 2534 403 2652 
Q 307 2771 122 2784 
L 122 2880 
L 1376 2880 
L 1376 2784 
Q 1210 2771 1146 2732 
Q 1082 2694 1082 2611 
Q 1082 2509 1139 2368 
L 1792 730 
L 2426 2387 
Q 2464 2483 2464 2579 
Q 2464 2758 2163 2784 
L 2163 2880 
L 3053 2880 
z
" transform="scale(0.015625)"/>
       <path id="STIXGeneral-Regular-61" d="M 2829 422 
L 2829 243 
Q 2586 -64 2253 -64 
Q 1888 -64 1843 403 
L 1837 403 
Q 1427 -64 909 -64 
Q 608 -64 422 112 
Q 237 288 237 602 
Q 237 1050 685 1350 
Q 992 1555 1837 1869 
L 1837 2214 
Q 1837 2502 1699 2646 
Q 1562 2790 1338 2790 
Q 1146 2790 1018 2697 
Q 890 2605 890 2477 
Q 890 2419 909 2348 
Q 928 2278 928 2208 
Q 928 2112 841 2029 
Q 755 1946 634 1946 
Q 525 1946 441 2029 
Q 358 2112 358 2240 
Q 358 2547 685 2752 
Q 986 2944 1421 2944 
Q 1939 2944 2176 2656 
Q 2291 2522 2323 2384 
Q 2355 2246 2355 1946 
L 2355 723 
Q 2355 301 2554 301 
Q 2682 301 2829 422 
z
M 1837 813 
L 1837 1715 
Q 1248 1510 1018 1293 
Q 800 1094 800 800 
Q 800 557 921 432 
Q 1043 307 1242 307 
Q 1453 307 1613 410 
Q 1747 506 1792 589 
Q 1837 672 1837 813 
z
" transform="scale(0.015625)"/>
       <path id="STIXGeneral-Regular-6c" d="M 1645 0 
L 134 0 
L 134 96 
Q 435 122 531 221 
Q 627 320 627 589 
L 627 3590 
Q 627 3821 569 3910 
Q 512 4000 358 4000 
Q 224 4000 122 3987 
L 122 4090 
Q 730 4237 1133 4371 
L 1165 4346 
L 1165 557 
Q 1165 288 1254 201 
Q 1344 115 1645 96 
L 1645 0 
z
" transform="scale(0.015625)"/>
       <path id="STIXGeneral-Regular-73" d="M 998 1926 
L 1664 1523 
Q 1984 1331 2105 1164 
Q 2227 998 2227 736 
Q 2227 416 1961 176 
Q 1696 -64 1331 -64 
Q 1030 -64 864 -6 
Q 691 51 570 51 
Q 461 51 416 -26 
L 333 -26 
L 333 979 
L 435 979 
Q 538 512 730 294 
Q 922 77 1248 77 
Q 1485 77 1632 211 
Q 1779 346 1779 550 
Q 1779 845 1440 1030 
L 1094 1222 
Q 326 1651 326 2150 
Q 326 2522 566 2730 
Q 806 2938 1210 2938 
Q 1491 2938 1638 2867 
Q 1754 2816 1818 2816 
Q 1862 2816 1920 2880 
L 1990 2880 
L 2022 2010 
L 1926 2010 
Q 1818 2445 1654 2621 
Q 1491 2797 1203 2797 
Q 986 2797 854 2688 
Q 723 2579 723 2362 
Q 723 2253 796 2128 
Q 870 2003 998 1926 
z
" transform="scale(0.015625)"/>
      </defs>
      <use xlink:href="#STIXGeneral-Regular-53"/>
      <use xlink:href="#STIXGeneral-Regular-51" transform="translate(55.599991 0)"/>
      <use xlink:href="#STIXGeneral-Regular-49" transform="translate(127.799973 0)"/>
      <use xlink:href="#STIXGeneral-Regular-20" transform="translate(161.09996 0)"/>
      <use xlink:href="#STIXGeneral-Regular-49" transform="translate(186.099945 0)"/>
      <use xlink:href="#STIXGeneral-Regular-6e" transform="translate(219.399933 0)"/>
      <use xlink:href="#STIXGeneral-Regular-74" transform="translate(269.399918 0)"/>
      <use xlink:href="#STIXGeneral-Regular-65" transform="translate(297.199905 0)"/>
      <use xlink:href="#STIXGeneral-Regular-72" transform="translate(341.599899 0)"/>
      <use xlink:href="#STIXGeneral-Regular-76" transform="translate(374.899887 0)"/>
      <use xlink:href="#STIXGeneral-Regular-61" transform="translate(424.899872 0)"/>
      <use xlink:href="#STIXGeneral-Regular-6c" transform="translate(469.299866 0)"/>
      <use xlink:href="#STIXGeneral-Regular-73" transform="translate(497.099854 0)"/>
     </g>
    </g>
   </g>
   <g id="matplotlib.axis_2">
    <g id="ytick_1">
     <g id="line2d_26">
      <defs>
       <path id="m43874be838" d="M 0 0 
L -3.5 0 
" style="stroke: #000000; stroke-width: 0.8"/>
      </defs>
      <g>
       <use xlink:href="#m43874be838" x="35.4" y="114.3" style="stroke: #000000; stroke-width: 0.8"/>
      </g>
     </g>
     <g id="text_27">
      <!-- 0.7 -->
      <g transform="translate(18.4 117.031875) scale(0.08 -0.08)">
       <use xlink:href="#STIXGeneral-Regular-30"/>
       <use xlink:href="#STIXGeneral-Regular-2e" transform="translate(49.999985 0)"/>
       <use xlink:href="#STIXGeneral-Regular-37" transform="translate(74.999969 0)"/>
      </g>
     </g>
    </g>
    <g id="ytick_2">
     <g id="line2d_27">
      <g>
       <use xlink:href="#m43874be838" x="35.4" y="80.7" style="stroke: #000000; stroke-width: 0.8"/>
      </g>
     </g>
     <g id="text_28">
      <!-- 0.8 -->
      <g transform="translate(18.4 83.431875) scale(0.08 -0.08)">
       <use xlink:href="#STIXGeneral-Regular-30"/>
       <use xlink:href="#STIXGeneral-Regular-2e" transform="translate(49.999985 0)"/>
       <use xlink:href="#STIXGeneral-Regular-38" transform="translate(74.999969 0)"/>
      </g>
     </g>
    </g>
    <g id="ytick_3">
     <g id="line2d_28">
      <g>
       <use xlink:href="#m43874be838" x="35.4" y="47.1" style="stroke: #000000; stroke-width: 0.8"/>
      </g>
     </g>
     <g id="text_29">
      <!-- 0.9 -->
      <g transform="translate(18.4 49.831875) scale(0.08 -0.08)">
       <use xlink:href="#STIXGeneral-Regular-30"/>
       <use xlink:href="#STIXGeneral-Regular-2e" transform="translate(49.999985 0)"/>
       <use xlink:href="#STIXGeneral-Regular-39" transform="translate(74.999969 0)"/>
      </g>
     </g>
    </g>
    <g id="ytick_4">
     <g id="line2d_29">
      <g>
       <use xlink:href="#m43874be838" x="35.4" y="13.5" style="stroke: #000000; stroke-width: 0.8"/>
      </g>
     </g>
     <g id="text_30">
      <!-- 1.0 -->
      <g transform="translate(18.4 16.231875) scale(0.08 -0.08)">
       <use xlink:href="#STIXGeneral-Regular-31"/>
       <use xlink:href="#STIXGeneral-Regular-2e" transform="translate(49.999985 0)"/>
       <use xlink:href="#STIXGeneral-Regular-30" transform="translate(74.999969 0)"/>
      </g>
     </g>
    </g>
    <g id="text_31">
     <!-- Mean $\mathrm{F}_1$ Score -->
     <g transform="translate(12.66375 100.58) rotate(-90) scale(0.08 -0.08)">
      <defs>
       <path id="STIXGeneral-Regular-4d" d="M 5530 0 
L 3738 0 
L 3738 122 
Q 4115 147 4214 265 
Q 4314 384 4314 787 
L 4314 3661 
L 2682 0 
L 2592 0 
L 979 3514 
L 979 966 
Q 979 448 1088 294 
Q 1197 141 1574 122 
L 1574 0 
L 77 0 
L 77 122 
Q 358 141 480 205 
Q 602 269 650 432 
Q 698 595 698 966 
L 698 3514 
Q 698 3878 589 3984 
Q 480 4090 90 4115 
L 90 4237 
L 1357 4237 
L 2835 1024 
L 4250 4237 
L 5523 4237 
L 5523 4115 
Q 5178 4109 5072 3993 
Q 4966 3878 4966 3520 
L 4966 717 
Q 4966 378 5072 262 
Q 5178 147 5530 122 
L 5530 0 
z
" transform="scale(0.015625)"/>
       <path id="STIXGeneral-Regular-46" d="M 3494 3322 
L 3334 3322 
Q 3264 3757 3094 3875 
Q 2925 3994 2349 3994 
L 1504 3994 
Q 1370 3994 1328 3946 
Q 1286 3898 1286 3744 
L 1286 2355 
L 2195 2355 
Q 2598 2355 2736 2470 
Q 2874 2586 2918 2963 
L 3066 2963 
L 3066 1472 
L 2918 1472 
Q 2880 1862 2745 1977 
Q 2611 2093 2195 2093 
L 1286 2093 
L 1286 717 
Q 1286 352 1392 246 
Q 1498 141 1869 122 
L 1869 0 
L 70 0 
L 70 122 
Q 435 147 534 259 
Q 634 371 634 787 
L 634 3526 
Q 634 3878 538 3984 
Q 442 4090 77 4115 
L 77 4237 
L 3462 4237 
L 3494 3322 
z
" transform="scale(0.015625)"/>
       <path id="STIXGeneral-Regular-63" d="M 2547 998 
L 2637 941 
Q 2362 403 2112 205 
Q 1786 -64 1376 -64 
Q 845 -64 502 336 
Q 160 736 160 1357 
Q 160 2170 698 2618 
Q 1094 2944 1562 2944 
Q 1965 2944 2256 2749 
Q 2547 2554 2547 2285 
Q 2547 2176 2457 2096 
Q 2368 2016 2246 2016 
Q 2022 2016 1939 2310 
L 1901 2451 
Q 1850 2630 1773 2694 
Q 1696 2758 1523 2758 
Q 1133 2758 893 2451 
Q 653 2144 653 1645 
Q 653 1094 928 745 
Q 1203 397 1645 397 
Q 1920 397 2118 528 
Q 2317 659 2547 998 
z
" transform="scale(0.015625)"/>
       <path id="STIXGeneral-Regular-6f" d="M 3008 1478 
Q 3008 806 2608 371 
Q 2208 -64 1568 -64 
Q 979 -64 582 368 
Q 186 800 186 1459 
Q 186 2125 582 2534 
Q 979 2944 1626 2944 
Q 2221 2944 2614 2537 
Q 3008 2131 3008 1478 
z
M 2432 1306 
Q 2432 2035 2112 2445 
Q 1856 2765 1504 2765 
Q 1171 2765 966 2493 
Q 762 2221 762 1747 
Q 762 928 1101 435 
Q 1318 115 1677 115 
Q 2029 115 2230 432 
Q 2432 749 2432 1306 
z
" transform="scale(0.015625)"/>
      </defs>
      <use xlink:href="#STIXGeneral-Regular-4d" transform="translate(0 0.40625)"/>
      <use xlink:href="#STIXGeneral-Regular-65" transform="translate(88.899994 0.40625)"/>
      <use xlink:href="#STIXGeneral-Regular-61" transform="translate(133.299988 0.40625)"/>
      <use xlink:href="#STIXGeneral-Regular-6e" transform="translate(177.699982 0.40625)"/>
      <use xlink:href="#STIXGeneral-Regular-20" transform="translate(227.699966 0.40625)"/>
      <use xlink:href="#STIXGeneral-Regular-46" transform="translate(252.699951 0.40625)"/>
      <use xlink:href="#STIXGeneral-Regular-31" transform="translate(309.843223 -12.821875) scale(0.7)"/>
      <use xlink:href="#STIXGeneral-Regular-20" transform="translate(349.252588 0.40625)"/>
      <use xlink:href="#STIXGeneral-Regular-53" transform="translate(374.252572 0.40625)"/>
      <use xlink:href="#STIXGeneral-Regular-63" transform="translate(429.852563 0.40625)"/>
      <use xlink:href="#STIXGeneral-Regular-6f" transform="translate(474.252557 0.40625)"/>
      <use xlink:href="#STIXGeneral-Regular-72" transform="translate(524.252542 0.40625)"/>
      <use xlink:href="#STIXGeneral-Regular-65" transform="translate(557.55253 0.40625)"/>
     </g>
    </g>
   </g>
   <g id="line2d_30">
    <path d="M 145.207229 13.5 
L 153.050602 13.5 
L 160.893976 19.988276 
L 168.737349 27.952335 
L 176.580723 25.528894 
L 184.424096 17.014722 
L 192.26747 60.536257 
L 200.110843 52.470459 
L 207.954217 39.432779 
L 215.79759 24.256894 
L 223.640964 15.009614 
" clip-path="url(#pdc2562be0b)" style="fill: none; stroke-dasharray: 1.85,0.8; stroke-dashoffset: 0; stroke: #4477aa; stroke-width: 0.5"/>
    <defs>
     <path id="ma6d5b8562a" d="M 0 1 
C 0.265203 1 0.51958 0.894634 0.707107 0.707107 
C 0.894634 0.51958 1 0.265203 1 0 
C 1 -0.265203 0.894634 -0.51958 0.707107 -0.707107 
C 0.51958 -0.894634 0.265203 -1 0 -1 
C -0.265203 -1 -0.51958 -0.894634 -0.707107 -0.707107 
C -0.894634 -0.51958 -1 -0.265203 -1 0 
C -1 0.265203 -0.894634 0.51958 -0.707107 0.707107 
C -0.51958 0.894634 -0.265203 1 0 1 
z
" style="stroke: #4477aa"/>
    </defs>
    <g clip-path="url(#pdc2562be0b)">
     <use xlink:href="#ma6d5b8562a" x="145.207229" y="13.5" style="fill: #4477aa; stroke: #4477aa"/>
     <use xlink:href="#ma6d5b8562a" x="153.050602" y="13.5" style="fill: #4477aa; stroke: #4477aa"/>
     <use xlink:href="#ma6d5b8562a" x="160.893976" y="19.988276" style="fill: #4477aa; stroke: #4477aa"/>
     <use xlink:href="#ma6d5b8562a" x="168.737349" y="27.952335" style="fill: #4477aa; stroke: #4477aa"/>
     <use xlink:href="#ma6d5b8562a" x="176.580723" y="25.528894" style="fill: #4477aa; stroke: #4477aa"/>
     <use xlink:href="#ma6d5b8562a" x="184.424096" y="17.014722" style="fill: #4477aa; stroke: #4477aa"/>
     <use xlink:href="#ma6d5b8562a" x="192.26747" y="60.536257" style="fill: #4477aa; stroke: #4477aa"/>
     <use xlink:href="#ma6d5b8562a" x="200.110843" y="52.470459" style="fill: #4477aa; stroke: #4477aa"/>
     <use xlink:href="#ma6d5b8562a" x="207.954217" y="39.432779" style="fill: #4477aa; stroke: #4477aa"/>
     <use xlink:href="#ma6d5b8562a" x="215.79759" y="24.256894" style="fill: #4477aa; stroke: #4477aa"/>
     <use xlink:href="#ma6d5b8562a" x="223.640964" y="15.009614" style="fill: #4477aa; stroke: #4477aa"/>
    </g>
   </g>
   <g id="line2d_31">
    <path d="M 82.460241 35.9 
L 90.303614 25.22093 
L 98.146988 20.199187 
L 105.990361 28.456522 
L 113.833735 28.484247 
L 121.677108 28.613738 
L 129.520482 16.16478 
L 137.363855 18.129031 
L 145.207229 19.628744 
L 153.050602 15.996096 
L 160.893976 17.599373 
L 168.737349 15.51503 
L 176.580723 17.45985 
L 184.424096 15.325141 
L 192.26747 16.963873 
L 200.110843 16.104513 
L 207.954217 16.04577 
L 215.79759 14.915685 
L 223.640964 16.724285 
" clip-path="url(#pdc2562be0b)" style="fill: none; stroke-dasharray: 1.85,0.8; stroke-dashoffset: 0; stroke: #228833; stroke-width: 0.5"/>
    <defs>
     <path id="m9e15ef528b" d="M -1 1 
L 1 -1 
M -1 -1 
L 1 1 
" style="stroke: #228833"/>
    </defs>
    <g clip-path="url(#pdc2562be0b)">
     <use xlink:href="#m9e15ef528b" x="82.460241" y="35.9" style="fill: #228833; stroke: #228833"/>
     <use xlink:href="#m9e15ef528b" x="90.303614" y="25.22093" style="fill: #228833; stroke: #228833"/>
     <use xlink:href="#m9e15ef528b" x="98.146988" y="20.199187" style="fill: #228833; stroke: #228833"/>
     <use xlink:href="#m9e15ef528b" x="105.990361" y="28.456522" style="fill: #228833; stroke: #228833"/>
     <use xlink:href="#m9e15ef528b" x="113.833735" y="28.484247" style="fill: #228833; stroke: #228833"/>
     <use xlink:href="#m9e15ef528b" x="121.677108" y="28.613738" style="fill: #228833; stroke: #228833"/>
     <use xlink:href="#m9e15ef528b" x="129.520482" y="16.16478" style="fill: #228833; stroke: #228833"/>
     <use xlink:href="#m9e15ef528b" x="137.363855" y="18.129031" style="fill: #228833; stroke: #228833"/>
     <use xlink:href="#m9e15ef528b" x="145.207229" y="19.628744" style="fill: #228833; stroke: #228833"/>
     <use xlink:href="#m9e15ef528b" x="153.050602" y="15.996096" style="fill: #228833; stroke: #228833"/>
     <use xlink:href="#m9e15ef528b" x="160.893976" y="17.599373" style="fill: #228833; stroke: #228833"/>
     <use xlink:href="#m9e15ef528b" x="168.737349" y="15.51503" style="fill: #228833; stroke: #228833"/>
     <use xlink:href="#m9e15ef528b" x="176.580723" y="17.45985" style="fill: #228833; stroke: #228833"/>
     <use xlink:href="#m9e15ef528b" x="184.424096" y="15.325141" style="fill: #228833; stroke: #228833"/>
     <use xlink:href="#m9e15ef528b" x="192.26747" y="16.963873" style="fill: #228833; stroke: #228833"/>
     <use xlink:href="#m9e15ef528b" x="200.110843" y="16.104513" style="fill: #228833; stroke: #228833"/>
     <use xlink:href="#m9e15ef528b" x="207.954217" y="16.04577" style="fill: #228833; stroke: #228833"/>
     <use xlink:href="#m9e15ef528b" x="215.79759" y="14.915685" style="fill: #228833; stroke: #228833"/>
     <use xlink:href="#m9e15ef528b" x="223.640964" y="16.724285" style="fill: #228833; stroke: #228833"/>
    </g>
   </g>
   <g id="line2d_32">
    <path d="M 160.893976 139.5 
L 192.26747 67.811709 
L 200.110843 57.767049 
L 207.954217 41.410221 
L 215.79759 27.804386 
L 223.640964 15.810793 
" clip-path="url(#pdc2562be0b)" style="fill: none; stroke-dasharray: 1.85,0.8; stroke-dashoffset: 0; stroke: #aa3377; stroke-width: 0.5"/>
    <defs>
     <path id="m4ddd29b533" d="M 0 -1 
L -1 1 
L 1 1 
z
" style="stroke: #aa3377; stroke-linejoin: miter"/>
    </defs>
    <g clip-path="url(#pdc2562be0b)">
     <use xlink:href="#m4ddd29b533" x="160.893976" y="139.5" style="fill: #aa3377; stroke: #aa3377; stroke-linejoin: miter"/>
     <use xlink:href="#m4ddd29b533" x="192.26747" y="67.811709" style="fill: #aa3377; stroke: #aa3377; stroke-linejoin: miter"/>
     <use xlink:href="#m4ddd29b533" x="200.110843" y="57.767049" style="fill: #aa3377; stroke: #aa3377; stroke-linejoin: miter"/>
     <use xlink:href="#m4ddd29b533" x="207.954217" y="41.410221" style="fill: #aa3377; stroke: #aa3377; stroke-linejoin: miter"/>
     <use xlink:href="#m4ddd29b533" x="215.79759" y="27.804386" style="fill: #aa3377; stroke: #aa3377; stroke-linejoin: miter"/>
     <use xlink:href="#m4ddd29b533" x="223.640964" y="15.810793" style="fill: #aa3377; stroke: #aa3377; stroke-linejoin: miter"/>
    </g>
   </g>
   <g id="patch_3">
    <path d="M 35.4 145.8 
L 35.4 7.2 
" style="fill: none; stroke: #000000; stroke-width: 0.8; stroke-linejoin: miter; stroke-linecap: square"/>
   </g>
   <g id="patch_4">
    <path d="M 230.7 145.8 
L 230.7 7.2 
" style="fill: none; stroke: #000000; stroke-width: 0.8; stroke-linejoin: miter; stroke-linecap: square"/>
   </g>
   <g id="patch_5">
    <path d="M 35.4 145.8 
L 230.7 145.8 
" style="fill: none; stroke: #000000; stroke-width: 0.8; stroke-linejoin: miter; stroke-linecap: square"/>
   </g>
   <g id="patch_6">
    <path d="M 35.4 7.2 
L 230.7 7.2 
" style="fill: none; stroke: #000000; stroke-width: 0.8; stroke-linejoin: miter; stroke-linecap: square"/>
   </g>
   <g id="legend_1">
    <g id="patch_7">
     <path d="M 41 141.8 
L 119.08 141.8 
Q 120.68 141.8 120.68 140.2 
L 120.68 106.9675 
Q 120.68 105.3675 119.08 105.3675 
L 41 105.3675 
Q 39.4 105.3675 39.4 106.9675 
L 39.4 140.2 
Q 39.4 141.8 41 141.8 
z
" style="fill: #ffffff; opacity: 0.8; stroke: #cccccc; stroke-linejoin: miter"/>
    </g>
    <g id="line2d_33">
     <path d="M 42.6 111.3675 
L 50.6 111.3675 
L 58.6 111.3675 
" style="fill: none; stroke-dasharray: 1.85,0.8; stroke-dashoffset: 0; stroke: #4477aa; stroke-width: 0.5"/>
     <g>
      <use xlink:href="#ma6d5b8562a" x="50.6" y="111.3675" style="fill: #4477aa; stroke: #4477aa"/>
     </g>
    </g>
    <g id="text_32">
     <!-- fSQI, $r_s=-0.41$ -->
     <g transform="translate(65 114.1675) scale(0.08 -0.08)">
      <defs>
       <path id="STIXGeneral-Regular-66" d="M 134 2880 
L 659 2880 
Q 666 3264 710 3478 
Q 755 3693 883 3910 
Q 1152 4371 1786 4371 
Q 2074 4371 2262 4259 
Q 2451 4147 2451 3974 
Q 2451 3866 2374 3789 
Q 2298 3712 2182 3712 
Q 2029 3712 1894 3942 
Q 1741 4192 1555 4192 
Q 1197 4192 1197 3622 
L 1197 2880 
L 1978 2880 
L 1978 2675 
L 1197 2675 
L 1197 666 
Q 1197 307 1299 208 
Q 1402 109 1792 96 
L 1792 0 
L 128 0 
L 128 96 
Q 474 115 566 214 
Q 659 314 659 666 
L 659 2675 
L 134 2675 
L 134 2880 
z
" transform="scale(0.015625)"/>
       <path id="STIXGeneral-Italic-72" d="M 1126 1427 
L 1229 1651 
Q 1446 2131 1830 2534 
Q 2106 2822 2336 2822 
Q 2470 2822 2553 2732 
Q 2637 2643 2637 2496 
Q 2637 2349 2557 2249 
Q 2477 2150 2336 2150 
Q 2214 2150 2112 2317 
Q 2061 2406 2010 2406 
Q 1837 2406 1485 1805 
Q 1267 1434 1136 1104 
Q 1005 774 774 0 
L 288 0 
L 806 1869 
Q 909 2246 909 2394 
Q 909 2560 666 2560 
Q 614 2560 467 2541 
L 467 2650 
L 1459 2822 
L 1478 2810 
L 1126 1427 
z
" transform="scale(0.015625)"/>
       <path id="STIXGeneral-Italic-73" d="M 2342 2829 
L 2214 1933 
L 2112 1933 
Q 2022 2675 1542 2675 
Q 1370 2675 1267 2579 
Q 1165 2483 1165 2310 
Q 1165 2067 1510 1658 
Q 1946 1152 1946 787 
Q 1946 397 1686 163 
Q 1427 -70 1024 -70 
Q 838 -70 672 -6 
Q 538 51 390 51 
Q 262 51 205 -83 
L 102 -83 
L 230 934 
L 333 934 
Q 461 64 973 64 
Q 1203 64 1331 192 
Q 1459 320 1459 557 
Q 1459 845 1101 1293 
Q 698 1798 698 2131 
Q 698 2451 909 2636 
Q 1120 2822 1472 2822 
Q 1600 2822 1830 2758 
Q 1971 2714 2061 2714 
Q 2189 2714 2253 2829 
L 2342 2829 
z
" transform="scale(0.015625)"/>
       <path id="STIXGeneral-Regular-3d" d="M 4077 2048 
L 307 2048 
L 307 2470 
L 4077 2470 
L 4077 2048 
z
M 4077 768 
L 307 768 
L 307 1190 
L 4077 1190 
L 4077 768 
z
" transform="scale(0.015625)"/>
       <path id="STIXGeneral-Regular-2212" d="M 3974 1408 
L 410 1408 
L 410 1830 
L 3974 1830 
L 3974 1408 
z
" transform="scale(0.015625)"/>
      </defs>
      <use xlink:href="#STIXGeneral-Regular-66" transform="translate(0 0.703125)"/>
      <use xlink:href="#STIXGeneral-Regular-53" transform="translate(33.299988 0.703125)"/>
      <use xlink:href="#STIXGeneral-Regular-51" transform="translate(88.899979 0.703125)"/>
      <use xlink:href="#STIXGeneral-Regular-49" transform="translate(161.09996 0.703125)"/>
      <use xlink:href="#STIXGeneral-Regular-2c" transform="translate(194.399948 0.703125)"/>
      <use xlink:href="#STIXGeneral-Regular-20" transform="translate(219.399933 0.703125)"/>
      <use xlink:href="#STIXGeneral-Italic-72" transform="translate(244.399918 0.703125)"/>
      <use xlink:href="#STIXGeneral-Italic-73" transform="translate(283.299911 -12.525) scale(0.7)"/>
      <use xlink:href="#STIXGeneral-Regular-3d" transform="translate(329.379279 0.703125)"/>
      <use xlink:href="#STIXGeneral-Regular-2212" transform="translate(412.31926 0.703125)"/>
      <use xlink:href="#STIXGeneral-Regular-30" transform="translate(480.819244 0.703125)"/>
      <use xlink:href="#STIXGeneral-Regular-2e" transform="translate(530.819229 0.703125)"/>
      <use xlink:href="#STIXGeneral-Regular-34" transform="translate(555.819214 0.703125)"/>
      <use xlink:href="#STIXGeneral-Regular-31" transform="translate(605.819199 0.703125)"/>
     </g>
    </g>
    <g id="line2d_34">
     <path d="M 42.6 122.70375 
L 50.6 122.70375 
L 58.6 122.70375 
" style="fill: none; stroke-dasharray: 1.85,0.8; stroke-dashoffset: 0; stroke: #228833; stroke-width: 0.5"/>
     <g>
      <use xlink:href="#m9e15ef528b" x="50.6" y="122.70375" style="fill: #228833; stroke: #228833"/>
     </g>
    </g>
    <g id="text_33">
     <!-- dSQI, $r_s=0.79$ -->
     <g transform="translate(65 125.50375) scale(0.08 -0.08)">
      <defs>
       <path id="STIXGeneral-Regular-64" d="M 3142 269 
L 2202 -64 
L 2176 -45 
L 2176 365 
Q 1869 -64 1357 -64 
Q 826 -64 499 317 
Q 173 698 173 1312 
Q 173 1990 563 2467 
Q 954 2944 1504 2944 
Q 1850 2944 2176 2669 
L 2176 3667 
Q 2176 3866 2118 3930 
Q 2061 3994 1882 3994 
Q 1792 3994 1741 3987 
L 1741 4090 
Q 2323 4243 2682 4371 
L 2714 4358 
L 2714 730 
Q 2714 506 2768 435 
Q 2822 365 2995 365 
Q 3034 365 3142 371 
L 3142 269 
z
M 2176 653 
L 2176 2125 
Q 2176 2381 1981 2573 
Q 1786 2765 1523 2765 
Q 1158 2765 940 2438 
Q 723 2112 723 1568 
Q 723 979 963 624 
Q 1203 269 1606 269 
Q 1907 269 2080 474 
Q 2176 582 2176 653 
z
" transform="scale(0.015625)"/>
      </defs>
      <use xlink:href="#STIXGeneral-Regular-64" transform="translate(0 0.703125)"/>
      <use xlink:href="#STIXGeneral-Regular-53" transform="translate(49.999985 0.703125)"/>
      <use xlink:href="#STIXGeneral-Regular-51" transform="translate(105.599976 0.703125)"/>
      <use xlink:href="#STIXGeneral-Regular-49" transform="translate(177.799957 0.703125)"/>
      <use xlink:href="#STIXGeneral-Regular-2c" transform="translate(211.099945 0.703125)"/>
      <use xlink:href="#STIXGeneral-Regular-20" transform="translate(236.09993 0.703125)"/>
      <use xlink:href="#STIXGeneral-Italic-72" transform="translate(261.099915 0.703125)"/>
      <use xlink:href="#STIXGeneral-Italic-73" transform="translate(299.999908 -12.525) scale(0.7)"/>
      <use xlink:href="#STIXGeneral-Regular-3d" transform="translate(346.079276 0.703125)"/>
      <use xlink:href="#STIXGeneral-Regular-30" transform="translate(429.019257 0.703125)"/>
      <use xlink:href="#STIXGeneral-Regular-2e" transform="translate(479.019241 0.703125)"/>
      <use xlink:href="#STIXGeneral-Regular-37" transform="translate(504.019226 0.703125)"/>
      <use xlink:href="#STIXGeneral-Regular-39" transform="translate(554.019211 0.703125)"/>
     </g>
    </g>
    <g id="line2d_35">
     <path d="M 42.6 134.04 
L 50.6 134.04 
L 58.6 134.04 
" style="fill: none; stroke-dasharray: 1.85,0.8; stroke-dashoffset: 0; stroke: #aa3377; stroke-width: 0.5"/>
     <g>
      <use xlink:href="#m4ddd29b533" x="50.6" y="134.04" style="fill: #aa3377; stroke: #aa3377; stroke-linejoin: miter"/>
     </g>
    </g>
    <g id="text_34">
     <!-- pSQI, $r_s=1.00$ -->
     <g transform="translate(65 136.84) scale(0.08 -0.08)">
      <defs>
       <path id="STIXGeneral-Regular-70" d="M 1018 2931 
L 1018 2438 
Q 1421 2944 1939 2944 
Q 2406 2944 2707 2560 
Q 3008 2176 3008 1581 
Q 3008 883 2621 409 
Q 2234 -64 1664 -64 
Q 1466 -64 1328 -6 
Q 1190 51 1018 211 
L 1018 -794 
Q 1018 -1094 1120 -1180 
Q 1222 -1267 1581 -1274 
L 1581 -1389 
L 32 -1389 
L 32 -1280 
Q 314 -1254 397 -1171 
Q 480 -1088 480 -838 
L 480 2157 
Q 480 2381 429 2451 
Q 378 2522 218 2522 
Q 115 2522 58 2515 
L 58 2618 
Q 506 2752 979 2944 
L 1018 2931 
z
M 1018 2138 
L 1018 563 
Q 1018 422 1238 281 
Q 1459 141 1683 141 
Q 2029 141 2243 467 
Q 2458 794 2458 1325 
Q 2458 1888 2243 2224 
Q 2029 2560 1670 2560 
Q 1446 2560 1232 2419 
Q 1018 2278 1018 2138 
z
" transform="scale(0.015625)"/>
      </defs>
      <use xlink:href="#STIXGeneral-Regular-70" transform="translate(0 0.40625)"/>
      <use xlink:href="#STIXGeneral-Regular-53" transform="translate(49.999985 0.40625)"/>
      <use xlink:href="#STIXGeneral-Regular-51" transform="translate(105.599976 0.40625)"/>
      <use xlink:href="#STIXGeneral-Regular-49" transform="translate(177.799957 0.40625)"/>
      <use xlink:href="#STIXGeneral-Regular-2c" transform="translate(211.099945 0.40625)"/>
      <use xlink:href="#STIXGeneral-Regular-20" transform="translate(236.09993 0.40625)"/>
      <use xlink:href="#STIXGeneral-Italic-72" transform="translate(261.099915 0.40625)"/>
      <use xlink:href="#STIXGeneral-Italic-73" transform="translate(299.999908 -12.821875) scale(0.7)"/>
      <use xlink:href="#STIXGeneral-Regular-3d" transform="translate(346.079276 0.40625)"/>
      <use xlink:href="#STIXGeneral-Regular-31" transform="translate(429.019257 0.40625)"/>
      <use xlink:href="#STIXGeneral-Regular-2e" transform="translate(479.019241 0.40625)"/>
      <use xlink:href="#STIXGeneral-Regular-30" transform="translate(504.019226 0.40625)"/>
      <use xlink:href="#STIXGeneral-Regular-30" transform="translate(554.019211 0.40625)"/>
     </g>
    </g>
   </g>
  </g>
 </g>
 <defs>
  <clipPath id="pdc2562be0b">
   <rect x="35.4" y="7.2" width="195.3" height="138.6"/>
  </clipPath>
 </defs>
</svg>
